<svg width="136" height="28" viewBox="0 0 136 28" fill="none" xmlns="http://www.w3.org/2000/svg">
<path d="M9.88206 17.7303C8.97323 17.7303 8.23587 17.0097 8.23587 16.1216V11.2933C8.23587 10.4052 8.97323 9.68467 9.88206 9.68467H27.1769C27.6325 9.68467 28 9.32559 28 8.88035V2.44099C28 1.99574 27.6325 1.63667 27.1769 1.63667H9.05897C8.60332 1.63667 8.23587 1.99574 8.23587 2.44099V8.07363C8.23587 8.96174 7.49851 9.68227 6.58968 9.68227H0.823097C0.367454 9.68227 0 10.0413 0 10.4866V16.9236C0 17.3688 0.367454 17.7279 0.823097 17.7279H6.58723C7.49606 17.7279 8.23342 18.4484 8.23342 19.3365V24.9692C8.23342 25.4144 8.60087 25.7735 9.05652 25.7735H23.8796C24.3353 25.7735 24.7027 25.4144 24.7027 24.9692V18.5322C24.7027 18.087 24.3353 17.7279 23.8796 17.7279H9.88206V17.7303Z" fill="#063532"/>
<path d="M46.1287 20.216C44.1481 20.216 42.6277 19.7248 41.5673 18.7423C40.5224 17.7599 40 16.3252 40 14.4382C40 12.4889 40.5614 11.0386 41.6842 10.0873C42.8226 9.13608 44.3353 8.66045 46.2222 8.66045C47.0019 8.66045 47.6725 8.71503 48.2339 8.82419C48.7953 8.93335 49.3411 9.11269 49.8713 9.3622V11.6312C49.4815 11.4441 49.0292 11.2959 48.5146 11.1868C48 11.0776 47.4464 11.023 46.8538 11.023C45.6686 11.023 44.7641 11.2725 44.1404 11.7716C43.5166 12.255 43.2047 13.1439 43.2047 14.4382C43.2047 15.6234 43.4854 16.4889 44.0468 17.0347C44.6238 17.5805 45.5517 17.8534 46.8304 17.8534C47.3762 17.8534 47.9064 17.7988 48.4211 17.6897C48.9513 17.5805 49.4425 17.4168 49.8947 17.1985V19.5376C48.8499 19.9899 47.5945 20.216 46.1287 20.216Z" fill="#063532"/>
<path d="M56.0768 20.216C55.375 20.216 54.72 20.0912 54.1118 19.8417C53.5192 19.5766 53.0358 19.1946 52.6615 18.6955C52.3029 18.1809 52.1235 17.5415 52.1235 16.7774C52.1235 15.6858 52.5056 14.8125 53.2697 14.1575C54.0495 13.5026 55.1957 13.1751 56.7083 13.1751H59.9832V12.871C59.9832 12.1848 59.7883 11.7014 59.3984 11.4207C59.0241 11.14 58.26 10.9996 57.106 10.9996C55.8428 10.9996 54.6265 11.1946 53.4569 11.5844V9.3622C53.9715 9.15947 54.5953 8.99573 55.3282 8.87097C56.0768 8.73062 56.8877 8.66045 57.761 8.66045C59.4296 8.66045 60.7161 9.00353 61.6206 9.68969C62.5407 10.3603 63.0007 11.4441 63.0007 12.9412V19.9821H60.2639L60.1001 18.9762C59.6635 19.3661 59.1255 19.6702 58.4861 19.8885C57.8467 20.1068 57.0436 20.216 56.0768 20.216ZM56.9423 18.1341C57.644 18.1341 58.2522 18.0172 58.7668 17.7833C59.2814 17.5493 59.6869 17.253 59.9832 16.8944V15.14H56.7785C55.5465 15.14 54.9306 15.6468 54.9306 16.6604C54.9306 17.6429 55.6011 18.1341 56.9423 18.1341Z" fill="#063532"/>
<path d="M70.1519 20.216C69.3254 20.216 68.5378 20.1536 67.7893 20.0289C67.0408 19.9197 66.4404 19.7794 65.9881 19.6078V16.9879C66.5339 17.2063 67.1499 17.3778 67.8361 17.5026C68.5222 17.6117 69.1538 17.6663 69.7308 17.6663C70.5105 17.6663 71.0563 17.6195 71.3682 17.5259C71.6957 17.4324 71.8595 17.2219 71.8595 16.8944C71.8595 16.5201 71.61 16.2472 71.1109 16.0757C70.6275 15.9041 69.9023 15.6624 68.9355 15.3505C67.9218 15.0074 67.1421 14.5942 66.5963 14.1107C66.0505 13.6273 65.7776 12.91 65.7776 11.9587C65.7776 10.8983 66.1597 10.0873 66.9238 9.52595C67.7035 8.94895 68.9511 8.66045 70.6665 8.66045C71.3526 8.66045 71.9998 8.71503 72.608 8.82419C73.2162 8.91776 73.7308 9.03472 74.1519 9.17507V11.7716C73.7308 11.5688 73.2474 11.4207 72.7016 11.3271C72.1558 11.218 71.6489 11.1634 71.1811 11.1634C70.5105 11.1634 69.9725 11.2102 69.5671 11.3037C69.1772 11.3973 68.9823 11.6 68.9823 11.9119C68.9823 12.255 69.1928 12.4967 69.6139 12.6371C70.0505 12.7774 70.7211 12.9879 71.6255 13.2686C72.5144 13.5337 73.2084 13.8222 73.7074 14.1341C74.2064 14.446 74.5573 14.8203 74.7601 15.2569C74.9628 15.678 75.0641 16.2082 75.0641 16.8476C75.0641 19.0932 73.4267 20.216 70.1519 20.216Z" fill="#063532"/>
<path d="M83.276 20.216C81.2954 20.216 79.775 19.7248 78.7146 18.7423C77.6697 17.7599 77.1473 16.3252 77.1473 14.4382C77.1473 12.4889 77.7087 11.0386 78.8315 10.0873C79.9699 9.13608 81.4826 8.66045 83.3695 8.66045C84.1492 8.66045 84.8198 8.71503 85.3812 8.82419C85.9426 8.93335 86.4884 9.11269 87.0186 9.3622V11.6312C86.6288 11.4441 86.1765 11.2959 85.6619 11.1868C85.1473 11.0776 84.5937 11.023 84.0011 11.023C82.8159 11.023 81.9114 11.2725 81.2876 11.7716C80.6639 12.255 80.352 13.1439 80.352 14.4382C80.352 15.6234 80.6327 16.4889 81.1941 17.0347C81.7711 17.5805 82.699 17.8534 83.9777 17.8534C84.5235 17.8534 85.0537 17.7988 85.5684 17.6897C86.0986 17.5805 86.5898 17.4168 87.042 17.1985V19.5376C85.9972 19.9899 84.7418 20.216 83.276 20.216Z" fill="#063532"/>
<path d="M93.224 20.216C92.5223 20.216 91.8673 20.0912 91.2591 19.8417C90.6665 19.5766 90.1831 19.1946 89.8088 18.6955C89.4502 18.1809 89.2708 17.5415 89.2708 16.7774C89.2708 15.6858 89.6529 14.8125 90.417 14.1575C91.1968 13.5026 92.343 13.1751 93.8556 13.1751H97.1305V12.871C97.1305 12.1848 96.9355 11.7014 96.5457 11.4207C96.1714 11.14 95.4073 10.9996 94.2533 10.9996C92.9901 10.9996 91.7738 11.1946 90.6042 11.5844V9.3622C91.1188 9.15947 91.7426 8.99573 92.4755 8.87097C93.224 8.73062 94.035 8.66045 94.9083 8.66045C96.5769 8.66045 97.8634 9.00353 98.7679 9.68969C99.688 10.3603 100.148 11.4441 100.148 12.9412V19.9821H97.4112L97.2474 18.9762C96.8108 19.3661 96.2728 19.6702 95.6334 19.8885C94.994 20.1068 94.1909 20.216 93.224 20.216ZM94.0895 18.1341C94.7913 18.1341 95.3995 18.0172 95.9141 17.7833C96.4287 17.5493 96.8342 17.253 97.1305 16.8944V15.14H93.9258C92.6938 15.14 92.0778 15.6468 92.0778 16.6604C92.0778 17.6429 92.7484 18.1341 94.0895 18.1341Z" fill="#063532"/>
<path d="M108.024 20.216C107.042 20.216 106.161 20.0445 105.381 19.7014C104.617 19.3427 104.017 18.7657 103.58 17.9704C103.143 17.1595 102.925 16.0912 102.925 14.7657C102.925 13.4402 103.167 12.3252 103.65 11.4207C104.133 10.5162 104.781 9.83004 105.592 9.3622C106.402 8.89437 107.291 8.66045 108.258 8.66045C109.475 8.66045 110.512 8.94115 111.369 9.50255V4.216H114.527V19.9821H111.814L111.627 18.9528C111.143 19.3739 110.613 19.6936 110.036 19.9119C109.475 20.1146 108.804 20.216 108.024 20.216ZM108.89 17.9002C109.872 17.9002 110.699 17.5649 111.369 16.8944V11.8417C110.714 11.2647 109.95 10.9762 109.077 10.9762C107.112 10.9762 106.13 12.2394 106.13 14.7657C106.13 15.9509 106.371 16.7696 106.855 17.2219C107.338 17.6741 108.017 17.9002 108.89 17.9002Z" fill="#063532"/>
<path d="M121.263 20.216C120.561 20.216 119.906 20.0912 119.298 19.8417C118.706 19.5766 118.222 19.1946 117.848 18.6955C117.489 18.1809 117.31 17.5415 117.31 16.7774C117.31 15.6858 117.692 14.8125 118.456 14.1575C119.236 13.5026 120.382 13.1751 121.895 13.1751H125.17V12.871C125.17 12.1848 124.975 11.7014 124.585 11.4207C124.211 11.14 123.446 10.9996 122.292 10.9996C121.029 10.9996 119.813 11.1946 118.643 11.5844V9.3622C119.158 9.15947 119.782 8.99573 120.515 8.87097C121.263 8.73062 122.074 8.66045 122.947 8.66045C124.616 8.66045 125.903 9.00353 126.807 9.68969C127.727 10.3603 128.187 11.4441 128.187 12.9412V19.9821H125.45L125.287 18.9762C124.85 19.3661 124.312 19.6702 123.673 19.8885C123.033 20.1068 122.23 20.216 121.263 20.216ZM122.129 18.1341C122.83 18.1341 123.439 18.0172 123.953 17.7833C124.468 17.5493 124.873 17.253 125.17 16.8944V15.14H121.965C120.733 15.14 120.117 15.6468 120.117 16.6604C120.117 17.6429 120.788 18.1341 122.129 18.1341Z" fill="#063532"/>
</svg>
